<svg xmlns="http://www.w3.org/2000/svg" xmlns:xlink="http://www.w3.org/1999/xlink" width="196" height="65" viewBox="0 0 196 65">
  <defs>
    <clipPath id="clip-Artboard_1">
      <rect width="196" height="65"/>
    </clipPath>
  </defs>
  <g id="Artboard_1" data-name="Artboard – 1" clip-path="url(#clip-Artboard_1)">
    <rect width="196" height="65" fill="#fff"/>
    <g id="Group_1" data-name="Group 1" transform="translate(-501.56 761.179)">
      <path id="Path_1" data-name="Path 1" d="M530.943-690.371c-.325,0-.486-.2-.486-.608a15.1,15.1,0,0,0-.243-2.946,4.415,4.415,0,0,0-.608-1.671q-.971-.971-3.645-.972H513.083a3.43,3.43,0,0,0-2.917,1.063q-.791,1.064-.789,4.04a3.491,3.491,0,0,0,.151,1.184,1.036,1.036,0,0,0,.517.577,2.467,2.467,0,0,0,.971.213q.607.031,1.519.091a1.643,1.643,0,0,1,.608.121q0,.122,1.67.152t4.83.152q.971.062,1.883.061.972,0,2.066.061a12.146,12.146,0,0,1,4.465.733,11.794,11.794,0,0,1,3.129,1.773,8.073,8.073,0,0,1,2.582,3.789,17.54,17.54,0,0,1,.82,5.684q0,8.252-8.688,8.251H513.083a11.778,11.778,0,0,1-3.858-.577,5.259,5.259,0,0,1-2.582-1.792Q505-673.36,505-679.253q0-.547.487-.547h3.341a.484.484,0,0,1,.548.547q0,3.645.789,4.678a1.64,1.64,0,0,0,1.155.82,8.916,8.916,0,0,0,2.126.212h12.393a4.763,4.763,0,0,0,3.433-1.045q1.061-1.046,1.063-4.118a3.54,3.54,0,0,0-1.216-2.828,8.233,8.233,0,0,0-3.128-1.6,19.932,19.932,0,0,0-4.192-.707q-2.278-.153-4.4-.154h-2q-2.005,0-3.858-.121a10.857,10.857,0,0,1-3.25-.668,4,4,0,0,1-2.582-2.946,20.063,20.063,0,0,1-.639-5.377,8.8,8.8,0,0,1,2.614-6.683,9.639,9.639,0,0,1,5.711-1.762h12.089q4.861,0,6.987,2.126,2.246,2.614,2.248,8.445,0,.608-.486.608Z" transform="translate(0 -40.496)" fill="#574e66"/>
      <path id="Path_2" data-name="Path 2" d="M818.335-670.573c-.364,0-.546-.161-.546-.486q0-.971.061-2.7t.243-4.222q.122-2.429.212-4.192t.092-2.916q0-6.318-1.64-9.538a5.757,5.757,0,0,0-2.43-2.764,7.63,7.63,0,0,0-3.767-.881h-6.987q-4.861,0-6.8,3.584a9.441,9.441,0,0,0-.85,3.706q-.123,2.248-.121,5.711v10.206q0,3.524.061,4.009c0,.325-.182.486-.547.486h-3.4c-.364,0-.546-.161-.546-.486v-17.01q0-2.429-.152-4.01a5.435,5.435,0,0,0-1.063-2.794,7.906,7.906,0,0,0-3.342-2.855,10,10,0,0,0-1.519-.426,6.635,6.635,0,0,0-1.153-.121h-7.169a8.018,8.018,0,0,0-3.949.911,5.762,5.762,0,0,0-2.491,2.916,13.919,13.919,0,0,0-1.186,4.1,39.992,39.992,0,0,0-.333,5.559q0,1.215.03,3.007t.152,4.1q.121,2.37.182,4.04t.061,2.582a.429.429,0,0,1-.486.486h-4.009c-.244,0-.365-.161-.365-.486v-18.772a16.928,16.928,0,0,1,.82-5.377,12.773,12.773,0,0,1,2.37-4.283,10.93,10.93,0,0,1,3.767-2.855,11.589,11.589,0,0,1,4.951-1.033h8.08a15.269,15.269,0,0,1,3.22.3,6.613,6.613,0,0,1,2.491,1.094c0,.041.041.061.121.061a8.824,8.824,0,0,1,1.854,1.61,12.386,12.386,0,0,1,1.488,2.156,7.416,7.416,0,0,1,3.16-3.827,6.6,6.6,0,0,1,2.49-1.094,14.927,14.927,0,0,1,3.16-.3h8.808a10.867,10.867,0,0,1,7.533,2.916,12.3,12.3,0,0,1,2.552,3.949,13.152,13.152,0,0,1,.911,4.982v20.474a.429.429,0,0,1-.486.486Z" transform="translate(-225.121 -38.909)" fill="#574e66"/>
      <path id="Path_3" data-name="Path 3" d="M1259.1-689.184c.039.405.061.79.061,1.154v6.561q-.184,4.132-.548,6.713a10.81,10.81,0,0,1-1.245,4.04,4.387,4.387,0,0,1-2.49,1.974,14.169,14.169,0,0,1-4.222.517h-14.824q-7.534,0-7.533-8.505v-3.037a17.652,17.652,0,0,1,.517-4.648,5.4,5.4,0,0,1,1.823-2.885,8.089,8.089,0,0,1,3.553-1.458,31.261,31.261,0,0,1,5.65-.425h14.52l-.061-.79a7.794,7.794,0,0,0-1.4-4.556c-.041,0-.1-.04-.182-.121a4.856,4.856,0,0,0-3.584-1.4h-9.9q-5.286,0-5.286,4.678,0,.608-.486.608h-3.524q-.547,0-.547-.608v-.729a8.581,8.581,0,0,1,2.916-6.987,7.724,7.724,0,0,1,2.885-1.518,12.238,12.238,0,0,1,3.433-.486H1249.5a9.675,9.675,0,0,1,7.108,2.673q2.552,2.612,2.552,8.444Zm-4.708,7.259q.029-1.244.03-1.792H1237.11a4.868,4.868,0,0,0-2.917.607q-1.58.67-1.58,3.4v2.43q0,4.071,4.5,4.071h12.454q4.678,0,4.678-5.346Q1254.364-680.679,1254.395-681.925Z" transform="translate(-627.313 -40.892)" fill="#574e66"/>
      <path id="Path_4" data-name="Path 4" d="M1516.975-687.94q-.486,0-.486-.608,0-8.019-6.5-8.02h-8.384a5.951,5.951,0,0,0-4.981,2q-1.582,2.005-1.58,6.015v19.38c0,.365-.2.547-.608.547h-3.4q-.427,0-.426-.547v-19.44a20.688,20.688,0,0,1,.426-4.648,15.3,15.3,0,0,1,.729-2.461.177.177,0,0,1,.061-.121.25.25,0,0,1,.06-.182,9.927,9.927,0,0,1,3.22-4.1,6.808,6.808,0,0,1,3.949-1.428h11.239a9.8,9.8,0,0,1,7.715,3.22q2.917,3.4,2.916,9.781,0,.608-.547.608Z" transform="translate(-854.81 -40.496)" fill="#574e66"/>
      <path id="Path_5" data-name="Path 5" d="M1752.146-718.412q.061,0,.061.182a10.579,10.579,0,0,1-.7,3.98,8.342,8.342,0,0,1-2.277,3.128,7.356,7.356,0,0,1-2.613,1.518,9.9,9.9,0,0,1-3.158.486h-6.744a7.832,7.832,0,0,1-4.677-1.306,8.517,8.517,0,0,1-2.856-3.858q-1.7-3.767-1.7-11.179,0-2.126.182-5.954.121-1.761.152-2.916t.03-2h-2.369c-.325,0-.486-.2-.486-.608v-4.677c0-.365.161-.547.486-.547h2.369v-5.589c0-.324.183-.486.547-.486h3.463a.43.43,0,0,1,.486.486v5.589h16.889c.4,0,.607.182.607.547v4.677a.537.537,0,0,1-.607.608h-16.889v15.37a9.988,9.988,0,0,0,1.032,5.134,3.629,3.629,0,0,0,3.342,1.671h6.562a4.751,4.751,0,0,0,2.794-.851,3.581,3.581,0,0,0,1.458-3.22c0-.364.161-.546.486-.546h3.706a.356.356,0,0,1,.243.061Z" transform="translate(-1058.088 0)" fill="#574e66"/>
    </g>
  </g>
</svg>
