<svg xmlns="http://www.w3.org/2000/svg" xmlns:xlink="http://www.w3.org/1999/xlink" width="268" height="79" viewBox="0 0 268 79">
  <defs>
    <clipPath id="clip-Artboard_1">
      <rect width="268" height="79"/>
    </clipPath>
  </defs>
  <g id="Artboard_1" data-name="Artboard – 1" clip-path="url(#clip-Artboard_1)">
  
    <g id="Group_1" data-name="Group 1" transform="translate(-61 -1.969)">
      <path id="Path_1" data-name="Path 1" d="M541.763-685.708c-.461,0-.688-.287-.688-.861a21.4,21.4,0,0,0-.344-4.175,6.256,6.256,0,0,0-.862-2.368q-1.377-1.375-5.166-1.377h-18.25q-3.016,0-4.133,1.507t-1.118,5.726a4.947,4.947,0,0,0,.214,1.678,1.467,1.467,0,0,0,.732.818,3.494,3.494,0,0,0,1.377.3q.86.044,2.153.129a2.329,2.329,0,0,1,.862.172q0,.173,2.367.215t6.844.215q1.376.088,2.669.086,1.377,0,2.927.087a17.214,17.214,0,0,1,6.328,1.039A16.715,16.715,0,0,1,542.108-680a11.44,11.44,0,0,1,3.659,5.37,24.854,24.854,0,0,1,1.162,8.055q0,11.693-12.312,11.693H516.453a16.689,16.689,0,0,1-5.468-.818,7.452,7.452,0,0,1-3.659-2.54Q505-661.6,505-669.953q0-.775.69-.775h4.735a.686.686,0,0,1,.776.775q0,5.165,1.118,6.629a2.323,2.323,0,0,0,1.636,1.162,12.635,12.635,0,0,0,3.013.3h17.562q3.358,0,4.865-1.481t1.507-5.835a5.017,5.017,0,0,0-1.723-4.008,11.669,11.669,0,0,0-4.433-2.264,28.251,28.251,0,0,0-5.94-1q-3.229-.218-6.242-.218h-2.841q-2.842,0-5.468-.172a15.389,15.389,0,0,1-4.605-.947,5.673,5.673,0,0,1-3.659-4.175,28.43,28.43,0,0,1-.905-7.62,12.467,12.467,0,0,1,3.7-9.47,13.66,13.66,0,0,1,8.093-2.5h17.131q6.888,0,9.9,3.013,3.183,3.7,3.185,11.967,0,.862-.688.861Z" transform="translate(-444.001 724.078)" fill="#fff"/>
      <path id="Path_2" data-name="Path 2" d="M840.761-656.889c-.516,0-.774-.229-.774-.689q0-1.377.086-3.831t.344-5.983q.172-3.443.3-5.941t.13-4.132q0-8.953-2.325-13.516a8.157,8.157,0,0,0-3.443-3.917,10.812,10.812,0,0,0-5.338-1.248h-9.9q-6.888,0-9.643,5.079a13.379,13.379,0,0,0-1.2,5.252q-.175,3.186-.172,8.093v14.464q0,4.994.086,5.682c0,.461-.258.689-.774.689h-4.822c-.516,0-.774-.229-.774-.689v-24.106q0-3.443-.216-5.682a7.7,7.7,0,0,0-1.506-3.96q-2.5-3.271-4.735-4.046a14.168,14.168,0,0,0-2.153-.6,9.394,9.394,0,0,0-1.635-.172H782.132a11.362,11.362,0,0,0-5.6,1.291,8.166,8.166,0,0,0-3.529,4.132,19.724,19.724,0,0,0-1.68,5.812,56.638,56.638,0,0,0-.472,7.877q0,1.722.042,4.261t.216,5.811q.172,3.358.258,5.725t.086,3.659a.608.608,0,0,1-.688.689h-5.682c-.346,0-.518-.229-.518-.689v-26.6a23.988,23.988,0,0,1,1.162-7.62,18.1,18.1,0,0,1,3.359-6.069,15.489,15.489,0,0,1,5.338-4.046,16.423,16.423,0,0,1,7.016-1.464h11.45a21.651,21.651,0,0,1,4.563.43,9.373,9.373,0,0,1,3.529,1.55c0,.058.057.086.172.086a12.5,12.5,0,0,1,2.627,2.282,17.556,17.556,0,0,1,2.109,3.056,10.509,10.509,0,0,1,4.478-5.424,9.358,9.358,0,0,1,3.529-1.55,21.164,21.164,0,0,1,4.477-.43H830.86a15.4,15.4,0,0,1,10.675,4.132,17.42,17.42,0,0,1,3.617,5.6,18.636,18.636,0,0,1,1.291,7.059v29.013a.608.608,0,0,1-.688.689Z" transform="translate(-654.754 725.563)" fill="#fff"/>
      <path id="Path_3" data-name="Path 3" d="M1271.951-684.218c.056.574.086,1.119.086,1.635v9.3q-.26,5.856-.776,9.513a15.326,15.326,0,0,1-1.764,5.725,6.218,6.218,0,0,1-3.529,2.8,20.08,20.08,0,0,1-5.984.732h-21.007q-10.677,0-10.676-12.053v-4.3a25.022,25.022,0,0,1,.732-6.586,7.647,7.647,0,0,1,2.583-4.089,11.46,11.46,0,0,1,5.036-2.067,44.292,44.292,0,0,1,8.007-.6h20.576l-.086-1.12q-.258-4.391-1.98-6.457c-.058,0-.143-.057-.258-.172a6.882,6.882,0,0,0-5.08-1.98H1243.8q-7.491,0-7.49,6.629,0,.862-.688.861h-4.993q-.775,0-.774-.861v-1.033q0-6.458,4.131-9.9a10.951,10.951,0,0,1,4.089-2.152,17.348,17.348,0,0,1,4.865-.689h15.409q6.458.087,10.073,3.788t3.617,11.967Zm-6.672,10.287q.041-1.763.042-2.539h-24.536q-3.1,0-4.133.86-2.239.949-2.239,4.821v3.443q0,5.769,6.372,5.769h17.648q6.63,0,6.63-7.576Q1265.234-672.165,1265.279-673.93Z" transform="translate(-1031.277 723.707)" fill="#fff"/>
      <path id="Path_4" data-name="Path 4" d="M1527.973-682.264q-.688,0-.688-.861,0-11.364-9.211-11.365h-11.881q-4.823,0-7.058,2.841t-2.239,8.524v27.463c0,.517-.288.775-.862.775h-4.82c-.4,0-.6-.258-.6-.775v-27.549a29.3,29.3,0,0,1,.6-6.586,21.651,21.651,0,0,1,1.032-3.487.251.251,0,0,1,.086-.172.353.353,0,0,1,.086-.258,14.065,14.065,0,0,1,4.563-5.811,9.649,9.649,0,0,1,5.6-2.024H1518.5q6.885,0,10.933,4.563,4.133,4.822,4.132,13.86,0,.862-.774.861Z" transform="translate(-1244.255 724.078)" fill="#fff"/>
      <path id="Path_5" data-name="Path 5" d="M1763.473-705.971q.086,0,.086.258a14.989,14.989,0,0,1-.99,5.64,11.826,11.826,0,0,1-3.227,4.433,10.427,10.427,0,0,1-3.7,2.152,14.028,14.028,0,0,1-4.476.689h-9.557a11.1,11.1,0,0,1-6.628-1.851,12.072,12.072,0,0,1-4.047-5.467q-2.411-5.338-2.411-15.841,0-3.012.258-8.438.172-2.495.216-4.132t.042-2.841h-3.357c-.461,0-.688-.287-.688-.861v-6.628c0-.517.228-.775.688-.775h3.357v-7.921c0-.459.26-.688.776-.688h4.907a.609.609,0,0,1,.688.688v7.921h23.934c.572,0,.861.258.861.775v6.628a.761.761,0,0,1-.861.861h-23.934v21.781q0,4.908,1.463,7.275a5.142,5.142,0,0,0,4.736,2.368h9.3a6.732,6.732,0,0,0,3.959-1.205,5.074,5.074,0,0,0,2.067-4.563c0-.516.228-.774.688-.774h5.251a.5.5,0,0,1,.344.086Z" transform="translate(-1434.559 761.989)" fill="#fff"/>
    </g>
  </g>
</svg>
