<?xml version="1.0" encoding="utf-8"?>
<!-- Generator: Adobe Illustrator 17.0.0, SVG Export Plug-In . SVG Version: 6.00 Build 0)  -->
<!DOCTYPE svg PUBLIC "-//W3C//DTD SVG 1.1//EN" "http://www.w3.org/Graphics/SVG/1.1/DTD/svg11.dtd">
<svg version="1.1" id="Layer_1" xmlns="http://www.w3.org/2000/svg" xmlns:xlink="http://www.w3.org/1999/xlink" x="0px" y="0px"
	 width="237.333px" height="87.342px" viewBox="0 0 237.333 87.342" enable-background="new 0 0 237.333 87.342"
	 xml:space="preserve">
<path fill="#FFFFFF" d="M183.026,12.261c-17.55,0-31.77,14.22-31.77,31.77s14.22,31.77,31.77,31.77s31.77-14.22,31.77-31.77
	S200.576,12.261,183.026,12.261z M204.966,57.421c-2.59,3.87-11.13,7.9-21.62,7.9h-0.96c-10.49,0-18.87-4.35-21.62-8.06
	c-0.96-1.62-1.29-2.91-0.96-4.52c0.48-1.57,1.77-3.23,4.28-4.91c-1.46-0.98-2.59-2.01-3.32-2.99c-0.96-1.61-1.29-2.91-0.96-4.52
	c0.64-2.09,2.74-4.35,7.25-6.61c8.55-3.71,12.75-7.42,14.04-8.71v-0.32c0-0.97,0.96-1.78,1.77-1.78c0.97,0,1.77,0.97,1.77,1.78v0.32
	c1.46,1.29,5.49,5,14.04,8.71c4.67,1.93,6.77,4.19,7.42,6.61c0.32,1.61,0,3.07-1.13,4.68c-0.64,0.95-1.64,1.91-2.94,2.83
	c2.38,1.51,3.6,3.17,4.07,4.91C206.417,54.031,206.096,55.811,204.966,57.421z"/>
<path fill="#FFFFFF" d="M202.867,43.231c-0.67,0.95-1.99,2.04-3.84,3.05c-0.12-0.05-0.23-0.1-0.35-0.15
	c-8.55-3.71-12.58-7.42-14.04-8.71v-0.32c0-0.81-0.8-1.78-1.77-1.78c-0.81,0-1.77,0.81-1.77,1.78v0.32c-1.29,1.29-5.49,5-14.04,8.71
	c-0.05,0.03-0.1,0.05-0.15,0.08c-1.79-0.99-3.05-2.05-3.71-2.98c-0.65-0.81-0.81-1.62-0.65-2.42c0.32-1.62,2.42-3.07,5.81-5
	c8.06-3.39,12.25-6.78,14.35-8.87h0.49c2.09,2.09,6.45,5.32,14.35,8.7c3.39,1.94,5.48,3.39,5.81,5
	C203.677,41.771,203.507,42.581,202.867,43.231z"/>
<path fill="#FFFFFF" d="M202.867,55.811c-1.94,2.74-9.19,6.61-19.35,6.61h-0.97c-10.16,0-17.42-3.87-19.35-6.61
	c-0.65-0.81-0.81-1.62-0.65-2.42c0.26-1.34,1.74-2.56,4.16-4.03c3.99,2.01,9.47,3.54,15.68,3.54h0.96c6.39,0,12.06-1.5,16.1-3.55
	c2.27,1.41,3.65,2.59,3.91,3.88C203.677,54.031,203.507,54.681,202.867,55.811z"/>
<path fill="#FFFFFF" d="M196.136,47.611c-3.31,1.29-7.61,2.23-12.62,2.23h-0.97c-4.95,0-9.22-0.92-12.51-2.18
	c6.97-3.14,10.72-6.2,12.67-8.14h0.49C185.156,41.481,189.127,44.451,196.136,47.611z"/>
<g>
	<polygon fill="#FFFFFF" points="41.893,60.646 40.665,66.958 29.779,69.337 30.822,63.644 	"/>
	<path fill="#FFFFFF" d="M52.117,33.44c2.412,0.435,4.389,0.934,5.932,1.499c-0.608,4.248-1.271,7.518-1.988,9.833
		c-0.717,2.303-1.619,4.085-2.716,5.345c-1.88,2.13-4.563,3.9-8.051,5.324c-3.488,1.434-7.073,2.151-10.745,2.151
		c-3.14,0-5.856-0.869-8.138-2.608c-2.282-1.727-3.553-4.129-3.792-7.192c1.38-3.835,3.118-7.388,5.204-10.68
		c2.075-3.281,4.748-6.432,8.018-9.452l1.282,5.758c-2.206,1.706-3.998,3.303-5.389,4.77c-1.391,1.467-2.629,3.064-3.737,4.77
		c1.065,1.63,2.423,2.868,4.074,3.705c1.651,0.837,3.748,1.26,6.269,1.26c3.183,0,6.149-0.522,8.877-1.565
		c2.738-1.043,4.998-2.401,6.801-4.074c-1.641-0.445-3.814-0.847-6.519-1.217c-2.716-0.369-5.074-0.576-7.073-0.619
		c0.815-3.303,2.021-6.486,3.607-9.539c2.162-3.151,4.704-5.737,7.627-7.779c2.912-2.043,6.106-3.509,9.572-4.4l-3.977,8.931
		c-2.162,0.282-4.302,0.902-6.421,1.836c-2.13,0.934-3.835,2.021-5.139,3.249C47.564,32.777,49.705,33.016,52.117,33.44z"/>
	<path fill="#FFFFFF" d="M81.213,40.937c-0.413,2.738-1.206,5.367-2.39,7.899c-1.184,2.532-2.771,4.618-4.748,6.269
		c-1.977,1.662-4.292,2.488-6.943,2.488c-1.793,0-3.944-0.489-6.432-1.445c-2.477-0.956-4.237-1.945-5.259-2.966
		c3.792-1.097,7.92-2.532,12.364-4.281c4.444-1.76,7.855-3.303,10.224-4.65l1.347-3.553L81.213,40.937z"/>
	<path fill="#FFFFFF" d="M93.816,25.639c0,3.629-0.185,7.953-0.554,12.951c-0.369,4.998-0.674,7.942-0.913,8.844l-3.977,9.235
		l-1.347-0.489c0.033-3.911-0.065-8.659-0.315-14.233c-0.239-5.563-0.565-10.506-0.978-14.841c1.152-1.38,2.434-2.705,3.857-3.977
		c1.434-1.26,2.716-2.206,3.857-2.814C93.696,21.217,93.816,22.988,93.816,25.639z"/>
	<path fill="#FFFFFF" d="M130.843,29.007l-5.139,3.368c-1.423-1.108-2.857-2.857-4.281-5.269l5.693-3.792l0.858,1.412
		C129.116,26.595,130.072,28.029,130.843,29.007z"/>
	<path fill="#FFFFFF" d="M139.481,61.634l-5.139,3.357c-1.434-1.097-2.857-2.847-4.292-5.259l5.693-3.792l0.858,1.402
		C137.742,59.222,138.698,60.646,139.481,61.634z"/>
	<path fill="#FFFFFF" d="M142.045,36.96c-0.565,5.432-1.89,10.267-3.977,14.505c-1.88,0.576-4.487,1.043-7.834,1.412l-7.529,0.793
		l0.369-7.768c-0.858,3.053-1.717,5.487-2.575,7.279c-2.021,0.684-4.302,1.163-6.812,1.456l-0.087,0.076l-5.758,0.608l-0.978-9.854
		c-0.695,1.467-1.554,3.053-2.575,4.748s-1.88,2.912-2.564,3.64c-2.206,2.445-4.878,3.672-8.018,3.672l0.761-8.659
		c4.433-1.695,7.79-3.173,10.072-4.433l3.064-3.737l-4.824-3.792l2.977-4.302l5.574,3.564l1.163,0.924l0.858,8.746l3.216-0.359
		l0.022-0.065c2.488-0.282,4.672-0.695,6.551-1.228l0.239-6.063l5.943-3.053l-0.435,8.996l4.9-0.489
		c2.032-0.25,3.694-0.554,4.954-0.924c0.576-2.238,1.021-4.161,1.347-5.747L142.045,36.96z"/>
</g>
<g>
	<polygon fill="#3E3F3C" points="-18.169,763.128 -21.494,780.223 -50.977,786.667 -48.152,771.249 	"/>
	<path fill="#3E3F3C" d="M9.519,689.45c6.532,1.177,11.887,2.53,16.066,4.06c-1.648,11.505-3.443,20.362-5.385,26.629
		c-1.942,6.238-4.384,11.063-7.356,14.477c-5.09,5.767-12.358,10.563-21.803,14.418c-9.445,3.884-19.155,5.826-29.1,5.826
		c-8.504,0-15.86-2.354-22.039-7.062c-6.179-4.678-9.622-11.181-10.269-19.479c3.737-10.387,8.445-20.008,14.094-28.924
		c5.62-8.886,12.858-17.419,21.715-25.599l3.472,15.595c-5.973,4.62-10.828,8.945-14.594,12.917s-7.121,8.298-10.122,12.917
		c2.884,4.414,6.562,7.768,11.034,10.034s10.151,3.413,16.978,3.413c8.621,0,16.654-1.412,24.039-4.237
		c7.415-2.825,13.535-6.503,18.419-11.034c-4.443-1.206-10.328-2.295-17.654-3.295c-7.356-1-13.741-1.56-19.155-1.677
		c2.207-8.945,5.473-17.566,9.769-25.834c5.855-8.533,12.741-15.536,20.656-21.068c7.886-5.532,16.536-9.504,25.923-11.917
		l-10.769,24.187c-5.855,0.765-11.652,2.442-17.39,4.973C0.28,681.3-4.34,684.242-7.87,687.567
		C-2.809,687.655,2.987,688.303,9.519,689.45z"/>
	<path fill="#3E3F3C" d="M88.317,709.753c-1.118,7.415-3.266,14.536-6.473,21.391c-3.207,6.856-7.503,12.505-12.858,16.978
		c-5.355,4.502-11.623,6.738-18.802,6.738c-4.855,0-10.681-1.324-17.419-3.913c-6.709-2.589-11.475-5.267-14.241-8.033
		c10.269-2.972,21.45-6.856,33.485-11.593c12.034-4.767,21.274-8.945,27.688-12.594l3.649-9.622L88.317,709.753z"/>
	<path fill="#3E3F3C" d="M122.449,668.324c0,9.828-0.5,21.538-1.501,35.074c-1,13.535-1.824,21.509-2.472,23.951l-10.769,25.01
		l-3.649-1.324c0.088-10.593-0.177-23.451-0.853-38.546c-0.647-15.065-1.53-28.453-2.648-40.193
		c3.119-3.737,6.591-7.327,10.446-10.769c3.884-3.413,7.356-5.973,10.446-7.621C122.125,656.348,122.449,661.144,122.449,668.324z"
		/>
	<path fill="#3E3F3C" d="M222.726,677.445l-13.918,9.122c-3.855-3.001-7.739-7.739-11.593-14.271l15.418-10.269l2.324,3.825
		C218.048,670.913,220.637,674.797,222.726,677.445z"/>
	<path fill="#3E3F3C" d="M246.118,765.806l-13.918,9.092c-3.884-2.972-7.739-7.709-11.623-14.241l15.418-10.269l2.324,3.796
		C241.411,759.273,244,763.128,246.118,765.806z"/>
	<path fill="#3E3F3C" d="M253.063,698.984c-1.53,14.712-5.12,27.806-10.769,39.281c-5.09,1.56-12.152,2.825-21.215,3.825
		l-20.391,2.148l1-21.038c-2.324,8.268-4.649,14.859-6.974,19.714c-5.473,1.854-11.652,3.148-18.449,3.943l-0.235,0.206
		l-15.595,1.648l-2.648-26.688c-1.883,3.972-4.208,8.268-6.973,12.858s-5.09,7.886-6.944,9.857
		c-5.973,6.62-13.211,9.945-21.715,9.945l2.06-23.451c12.005-4.59,21.097-8.592,27.276-12.005l8.298-10.122l-13.064-10.269
		l8.062-11.652l15.095,9.651l3.148,2.501l2.324,23.686l8.71-0.971l0.059-0.177c6.738-0.765,12.652-1.883,17.743-3.325l0.647-16.419
		l16.095-8.268l-1.177,24.363l13.27-1.324c5.502-0.677,10.004-1.501,13.417-2.501c1.559-6.061,2.766-11.269,3.649-15.565
		L253.063,698.984z"/>
</g>
<g>
	<path fill="#189754" d="M91.348,326.467c82.746,0,149.829,67.083,149.829,149.829S174.094,626.126,91.348,626.126
		S-58.482,559.048-58.482,476.297S8.596,326.467,91.348,326.467"/>
	<path fill="#FFFFFF" d="M200.112,458.805c-3.043-11.405-12.932-22.057-34.989-31.182c-40.307-17.492-59.321-34.989-66.166-41.071
		v-1.522c0-3.807-3.807-8.367-8.367-8.367c-3.807,0-8.367,3.807-8.367,8.367v1.522c-6.087,6.082-25.859,23.579-66.171,41.071
		c-21.294,10.652-31.182,21.294-34.226,31.182c-1.522,7.603,0,13.69,4.56,21.294c12.932,17.492,52.481,38.033,101.919,38.033h2.28
		h2.28c49.432,0,89.745-19.014,101.919-37.269C200.112,473.259,201.633,466.408,200.112,458.805 M184.9,472.495
		c-9.125,12.932-43.351,31.182-91.267,31.182h-2.28h-2.28c-47.916,0-82.142-18.25-91.267-31.182
		c-3.038-3.807-3.807-7.603-3.038-11.405c1.522-7.603,11.405-14.449,27.38-23.579c38.027-15.97,57.804-31.946,67.688-41.834h2.285
		c9.889,9.889,30.424,25.101,67.688,41.071c15.97,9.125,25.859,15.97,27.38,23.579C188.701,465.65,187.943,469.452,184.9,472.495"/>
	<path fill="#FFFFFF" d="M200.112,517.368c-3.043-11.405-12.932-22.057-34.989-31.182c-40.307-17.492-59.321-34.984-66.166-41.071
		v-1.522c0-3.807-3.807-8.367-8.367-8.367c-3.807,0-8.367,3.807-8.367,8.367v1.522c-6.087,6.087-25.859,23.579-66.171,41.071
		c-21.294,10.652-31.182,21.299-34.226,31.182c-1.522,7.603,0,13.69,4.56,21.294c12.932,17.492,52.481,38.027,101.919,38.027h2.28
		h2.28c49.432,0,89.745-19.014,101.919-37.269C200.112,531.821,201.633,523.454,200.112,517.368 M184.9,531.821
		c-9.125,12.932-43.351,31.182-91.267,31.182h-2.28h-2.28c-47.916,0-82.142-18.25-91.267-31.182
		c-3.038-3.807-3.807-7.603-3.038-11.405c1.522-7.603,11.405-14.449,27.38-23.579c38.027-15.97,57.804-31.946,67.688-41.834h2.285
		c9.889,9.889,30.424,25.101,67.688,41.071c15.97,9.125,25.859,15.97,27.38,23.579C188.701,523.454,187.943,526.498,184.9,531.821"
		/>
</g>
</svg>
